# xmcd
#
# Track frame offsets: 
#        183
#        11788
#        23255
#        33145
#        52598
#        67945
#        80685
#        92565
#        106375
#        121605
#        135353
#        149320
#        161555
#        175200
#        188650
#        200258
#
# Disc length: 2842 seconds
#
# Revision: 1
# Processed by: cddbd v1.5.2PL0 Copyright (c) Steve Scherf et al.
# Submitted via: ExactAudioCopyFreeDBPlugin 1.0
#
DISCID=b70b1810
DTITLE=Dinah Washington - What A Difference A Day Makes
DYEAR=1993
DGENRE=Blues
TTITLE0=What A Difference A Day Made
TTITLE1=Our Love Is Here To Stay
TTITLE2=September In The Rain
TTITLE3=Manhattan
TTITLE4=Smoke Gets In Your Eyes
TTITLE5=Mad About The Boy
TTITLE6=Harbour Lights
TTITLE7=I Concentrate On You
TTITLE8=I Won't Cry Anymore
TTITLE9=Soft Winds
TTITLE10=If It's The Last Thing I Do
TTITLE11=Dream
TTITLE12=Trust In Me
TTITLE13=Tell Me Why
TTITLE14=Such A Night
TTITLE15=That's All I Want From You
EXTD=
EXTT0=
EXTT1=
EXTT2=
EXTT3=
EXTT4=
EXTT5=
EXTT6=
EXTT7=
EXTT8=
EXTT9=
EXTT10=
EXTT11=
EXTT12=
EXTT13=
EXTT14=
EXTT15=
PLAYORDER=
